<?xml version="1.0" standalone="no"?>
<!DOCTYPE svg PUBLIC "-//W3C//DTD SVG 20010904//EN"
 "http://www.w3.org/TR/2001/REC-SVG-20010904/DTD/svg10.dtd">
<svg version="1.0" xmlns="http://www.w3.org/2000/svg"
 width="1080.000000pt" height="1080.000000pt" viewBox="0 0 1080.000000 1080.000000"
 preserveAspectRatio="xMidYMid meet">

<g transform="translate(0.000000,1080.000000) scale(0.100000,-0.100000)"
fill="#000000" stroke="none">
<path d="M3310 6848 c-11 -25 -26 -75 -33 -111 -14 -66 -79 -182 -171 -305
-38 -51 -41 -53 -75 -47 -35 7 -35 6 -18 -12 22 -25 22 -36 -4 -59 -41 -37
-61 -74 -55 -99 13 -51 58 -26 115 63 28 43 40 53 89 70 31 11 65 23 74 27 14
5 18 -1 23 -32 17 -106 27 -170 31 -189 2 -12 12 -32 22 -44 16 -19 22 -21 40
-11 20 11 22 19 21 131 0 66 6 146 13 177 12 52 17 59 60 86 65 40 47 62 -26
32 -21 -9 -21 -21 8 155 9 52 16 109 16 126 0 43 -27 73 -72 81 -37 5 -38 5
-58 -39z m-57 -349 c-5 -52 -8 -58 -40 -73 -39 -18 -56 -14 -45 12 20 48 76
132 83 125 4 -4 5 -33 2 -64z"/>
<path d="M6085 6845 c-38 -7 -86 -18 -105 -24 -19 -6 -44 -11 -55 -10 -20 0
-20 0 0 10 17 8 17 9 -5 4 -14 -2 -33 -5 -42 -5 -18 0 -38 -53 -38 -103 0 -28
1 -28 45 -21 25 3 45 3 45 -1 0 -3 -27 -61 -59 -128 -56 -116 -83 -189 -131
-355 -27 -95 -21 -106 52 -87 28 8 54 18 58 22 4 4 22 59 39 120 39 142 67
204 88 196 11 -4 14 -2 9 5 -4 7 4 9 28 5 37 -6 139 24 130 39 -3 4 2 5 11 2
19 -8 151 55 196 93 115 97 119 192 9 236 -45 18 -185 19 -275 2z m256 -101
c10 -9 19 -25 19 -35 0 -24 -53 -63 -117 -85 -29 -10 -47 -21 -42 -25 6 -3 -2
-10 -17 -13 -16 -4 -31 -11 -34 -15 -9 -13 -134 -59 -147 -54 -22 9 -15 33 38
124 54 95 50 92 164 119 54 12 112 6 136 -16z m-294 -260 c-3 -3 -12 -4 -19
-1 -8 3 -5 6 6 6 11 1 17 -2 13 -5z"/>
<path d="M4358 6784 c-40 -29 -88 -110 -112 -192 -21 -71 -23 -74 -51 -56 -21
14 -27 14 -62 -4 -48 -25 -74 -54 -107 -119 -45 -91 -174 -176 -192 -128 -4 9
0 52 7 96 15 91 8 112 -36 117 -23 3 -41 -9 -106 -74 -44 -43 -79 -74 -79 -68
0 6 11 38 25 72 35 86 34 135 -4 161 l-29 21 -15 -27 c-76 -150 -99 -199 -121
-265 -40 -119 -33 -148 34 -148 46 0 52 5 82 70 25 54 140 200 158 200 4 0 8
-31 7 -68 -2 -51 3 -75 16 -95 39 -60 126 -61 186 -3 38 37 51 38 51 4 0 -26
53 -78 79 -78 33 0 68 21 81 49 13 26 13 25 25 -25 15 -68 44 -114 83 -137 32
-19 34 -19 69 -1 44 23 72 60 118 151 19 39 42 76 50 83 13 11 15 6 15 -32 0
-46 13 -71 43 -82 30 -10 58 32 122 184 l60 143 5 -64 c4 -56 8 -65 32 -79 26
-14 29 -13 48 8 11 12 15 17 8 12 -21 -18 -25 -11 -32 51 -13 131 -57 118
-131 -37 -32 -67 -50 -92 -60 -82 -2 2 11 40 30 83 19 44 35 88 35 98 0 34
-39 77 -70 77 -32 0 -46 -27 -75 -141 -9 -35 -31 -89 -49 -119 -18 -31 -44
-81 -59 -113 -16 -36 -35 -60 -49 -66 -20 -7 -26 -3 -50 35 -24 38 -28 54 -28
122 0 98 9 130 63 211 123 188 114 347 -15 255z m85 -7 c11 -29 -16 -129 -53
-189 -45 -76 -64 -87 -54 -32 14 77 77 234 94 234 4 0 10 -6 13 -13z m-255
-411 c-7 -84 -78 -166 -78 -90 0 34 59 144 77 144 3 0 3 -24 1 -54z m106 -275
c-2 -3 -12 3 -22 13 -16 17 -16 18 5 5 12 -7 20 -15 17 -18z"/>
<path d="M5279 6603 c-44 -50 -62 -113 -47 -170 11 -44 10 -45 -27 -83 -53
-54 -133 -95 -168 -86 -53 13 -84 98 -52 140 16 21 17 21 34 -11 7 -15 21 -23
37 -23 20 0 29 10 49 53 14 28 25 58 25 65 0 26 -35 64 -77 84 -44 21 -45 21
-71 1 -40 -30 -84 -89 -89 -120 -8 -45 -4 -140 7 -167 18 -47 119 -77 187 -56
51 17 143 88 143 111 0 36 21 29 40 -13 25 -56 25 -80 -1 -104 -40 -35 -79
-97 -78 -123 0 -23 1 -24 9 -6 11 27 88 100 96 92 20 -19 -62 -137 -85 -122
-6 3 -11 1 -11 -6 0 -7 13 -10 35 -7 19 2 35 0 35 -4 0 -17 48 24 78 66 19 27
35 63 38 89 6 40 12 49 54 76 59 38 110 95 110 122 0 18 -7 15 -47 -21 -46
-40 -129 -89 -136 -79 -21 27 -67 113 -67 127 0 9 9 31 20 47 27 40 26 87 -3
120 -22 26 -23 26 -38 8z m-189 -103 c0 -25 -32 -70 -50 -70 -30 0 -32 16 -4
49 25 30 54 41 54 21z"/>
<path d="M7615 6613 c-11 -3 -57 -21 -102 -39 -45 -19 -91 -34 -102 -34 -34 0
-24 -40 13 -54 14 -5 38 6 85 38 97 66 129 70 121 16 -2 -17 -171 -185 -197
-194 -16 -6 -16 -8 1 -24 12 -12 34 -17 74 -18 99 -1 95 1 87 -41 -20 -109
-130 -263 -188 -263 -31 0 -31 0 -13 45 17 39 62 100 120 162 22 24 37 45 34
48 -8 8 -139 -98 -170 -138 -15 -19 -37 -55 -49 -80 -21 -43 -21 -47 -6 -70
38 -58 138 -33 224 55 48 49 113 173 120 229 6 44 -11 95 -35 104 -12 4 -7 14
25 48 85 88 98 168 32 202 -29 15 -39 16 -74 8z"/>
<path d="M6730 6544 c-11 -31 -24 -77 -27 -102 -8 -57 -60 -118 -136 -157 -65
-34 -99 -29 -127 18 -23 38 -25 74 -5 101 16 21 17 21 34 -11 7 -15 21 -23 37
-23 20 0 29 10 49 53 14 28 25 58 25 65 0 26 -35 64 -77 84 -44 21 -45 21 -71
1 -40 -30 -84 -89 -89 -120 -8 -45 -4 -140 7 -167 18 -47 119 -77 187 -56 51
17 141 86 146 113 2 12 5 -5 6 -39 1 -62 12 -86 44 -98 30 -10 58 32 122 184
l60 143 5 -64 c4 -56 8 -65 32 -79 26 -14 29 -13 48 8 11 12 15 17 8 12 -21
-18 -25 -11 -32 51 -13 131 -57 118 -131 -37 -32 -67 -50 -92 -60 -82 -2 2 11
40 30 83 19 44 35 88 35 98 0 34 -39 77 -70 77 -26 0 -31 -6 -50 -56z m-190
-44 c0 -25 -32 -70 -50 -70 -30 0 -32 16 -4 49 25 30 54 41 54 21z"/>
<path d="M7115 6544 c-25 -25 -48 -58 -51 -72 -3 -15 -10 -39 -16 -54 -5 -15
-6 -33 -2 -40 5 -7 9 -30 9 -52 2 -74 98 -122 193 -97 55 15 125 72 156 127
15 26 25 48 23 50 -1 2 -27 -22 -57 -51 -54 -55 -120 -95 -156 -95 -54 0 -101
85 -74 135 17 32 28 32 40 0 22 -57 89 -11 106 72 9 43 -18 90 -56 98 -16 4
-32 11 -35 16 -12 19 -37 8 -80 -37z m135 -44 c0 -26 -32 -70 -50 -70 -27 0
-26 28 2 57 22 24 48 31 48 13z"/>
<path d="M2943 5529 c-47 -14 -109 -76 -123 -126 -26 -87 21 -168 128 -219
117 -56 144 -92 102 -134 -30 -30 -93 -26 -159 10 -30 17 -58 30 -62 30 -4 0
-22 -25 -40 -56 -36 -63 -38 -59 51 -102 47 -23 68 -27 145 -27 77 0 98 4 140
25 67 35 98 92 93 173 -4 49 -9 62 -39 93 -19 20 -70 54 -114 76 -91 46 -115
64 -115 88 0 49 82 65 158 30 l43 -19 26 54 c27 54 27 55 8 69 -50 37 -174 55
-242 35z"/>
<path d="M5293 5526 c-72 -23 -150 -91 -185 -161 -23 -45 -29 -82 -29 -158 0
-165 118 -293 282 -305 219 -16 380 182 325 397 -46 179 -222 280 -393 227z
m203 -170 c40 -46 56 -112 44 -179 -12 -60 -22 -78 -61 -111 -25 -21 -41 -26
-88 -26 -103 0 -161 63 -161 174 0 73 29 140 74 168 24 15 44 18 95 15 60 -3
66 -6 97 -41z"/>
<path d="M8140 5531 c-87 -28 -160 -91 -201 -171 -33 -66 -38 -186 -10 -261
58 -154 220 -233 384 -185 73 21 155 95 188 168 32 73 34 202 3 269 -52 112
-151 180 -269 185 -38 2 -81 0 -95 -5z m180 -169 c64 -64 76 -167 29 -251 -28
-51 -65 -71 -131 -71 -98 0 -158 67 -157 175 1 119 59 185 162 185 55 0 62 -3
97 -38z"/>
<path d="M1720 5220 l0 -312 133 4 c107 3 141 7 178 24 67 31 114 78 149 146
26 52 30 72 30 138 0 129 -61 224 -180 282 -37 18 -68 22 -177 26 l-133 4 0
-312z m270 150 c65 -46 88 -154 51 -236 -24 -54 -71 -86 -132 -92 l-49 -5 0
183 0 183 49 -5 c28 -3 62 -14 81 -28z"/>
<path d="M2310 5220 l0 -310 180 0 180 0 0 60 0 59 -107 3 -108 3 -3 63 -3 62
106 0 105 0 0 60 0 60 -105 0 -106 0 3 63 3 62 108 3 107 3 0 59 0 60 -180 0
-180 0 0 -310z"/>
<path d="M3510 5527 c0 -1 -56 -141 -125 -310 l-124 -308 76 3 77 3 21 55 21
55 120 3 120 3 21 -58 20 -58 77 -3 c42 -2 76 -2 76 0 0 2 -56 140 -123 308
l-123 305 -67 3 c-37 2 -67 1 -67 -1z m104 -282 c14 -39 26 -74 26 -78 0 -4
-30 -7 -66 -7 -59 0 -65 2 -60 18 37 100 61 151 66 145 4 -4 19 -40 34 -78z"/>
<path d="M3950 5221 l0 -311 70 0 69 0 3 122 3 122 94 -122 93 -122 90 0 90 0
-40 48 c-22 26 -69 83 -106 127 l-66 79 34 18 c60 31 88 85 88 169 -1 69 -26
115 -81 147 -43 26 -54 27 -193 30 l-148 4 0 -311z m258 163 c47 -54 11 -122
-68 -126 l-45 -3 -3 69 c-2 38 0 76 3 84 9 23 85 7 113 -24z"/>
<path d="M4530 5221 l0 -311 70 0 70 0 0 121 0 122 93 -121 92 -121 88 0 c68
-1 86 2 81 12 -5 6 -51 63 -103 126 -62 74 -91 116 -82 119 30 10 81 66 97
108 22 58 14 134 -20 179 -44 57 -84 69 -243 73 l-143 4 0 -311z m212 189 c41
-12 58 -34 58 -75 0 -41 -17 -63 -58 -75 -72 -20 -72 -20 -72 75 0 95 0 95 72
75z"/>
<path d="M5800 5220 l0 -310 175 0 175 0 0 60 0 60 -105 0 -105 0 0 250 0 250
-70 0 -70 0 0 -310z"/>
<path d="M6260 5220 l0 -310 175 0 175 0 0 60 0 60 -105 0 -105 0 0 250 0 250
-70 0 -70 0 0 -310z"/>
<path d="M6782 5228 c-67 -167 -122 -306 -122 -310 0 -5 33 -8 73 -8 l73 0 21
58 20 57 120 3 120 3 23 -61 22 -60 75 0 c67 0 74 2 69 18 -4 9 -59 149 -124
309 l-117 293 -65 0 -66 0 -122 -302z m226 10 l30 -78 -69 0 -69 0 26 68 c14
37 28 75 31 85 8 26 18 12 51 -75z"/>
<path d="M7350 5220 l0 -312 128 4 c102 3 136 8 173 25 66 30 124 86 156 150
22 47 27 68 26 134 0 95 -31 167 -95 224 -70 64 -116 78 -260 83 l-128 4 0
-312z m234 166 c18 -8 46 -31 62 -52 26 -34 29 -45 29 -115 0 -63 -4 -83 -21
-106 -33 -44 -82 -73 -125 -73 l-39 0 0 180 0 180 30 0 c17 0 46 -6 64 -14z"/>
<path d="M8630 5220 l0 -310 70 0 69 0 3 120 3 119 93 -119 93 -120 84 0 c47
0 85 2 85 5 0 3 -45 60 -100 127 l-100 120 40 27 c98 63 109 220 21 294 -46
38 -90 47 -233 47 l-128 0 0 -310z m252 173 c12 -11 18 -30 18 -59 0 -51 -20
-69 -87 -80 l-43 -7 0 88 0 88 47 -7 c25 -3 55 -14 65 -23z"/>
<path d="M3900 4594 c-76 -33 -120 -96 -120 -172 0 -83 28 -112 199 -204 44
-24 51 -32 51 -57 0 -37 -32 -61 -80 -61 -37 0 -113 31 -141 56 -15 14 -20 10
-48 -39 -17 -30 -31 -59 -31 -66 0 -6 28 -25 63 -43 57 -30 70 -32 157 -33 83
0 101 3 140 25 73 41 112 123 95 201 -11 48 -76 105 -169 148 -90 41 -114 67
-96 101 19 36 95 39 162 6 17 -9 32 -15 33 -14 2 2 14 27 29 55 l26 52 -26 17
c-62 41 -182 55 -244 28z"/>
<path d="M4473 4591 c-77 -26 -136 -80 -175 -159 -29 -59 -33 -75 -32 -147 1
-106 28 -168 101 -235 68 -62 136 -85 233 -78 161 12 280 141 282 305 0 85
-13 136 -53 196 -77 116 -222 165 -356 118z m185 -141 c89 -54 96 -241 12
-315 -18 -16 -36 -20 -95 -20 -64 0 -77 3 -100 25 -42 39 -57 78 -58 145 -1
74 24 129 73 163 43 29 121 30 168 2z"/>
<path d="M2440 4290 l0 -312 133 4 c107 3 141 7 178 24 67 31 114 78 149 146
26 52 30 72 30 138 0 129 -61 224 -180 282 -37 18 -68 22 -177 26 l-133 4 0
-312z m270 150 c91 -65 91 -235 0 -300 -19 -14 -53 -25 -81 -28 l-49 -5 0 183
0 183 49 -5 c28 -3 62 -14 81 -28z"/>
<path d="M3040 4290 l0 -310 175 0 175 0 0 60 0 60 -105 0 -105 0 0 65 0 65
100 0 100 0 0 60 0 60 -100 0 -100 0 0 65 0 65 105 0 105 0 0 60 0 60 -175 0
-175 0 0 -310z"/>
<path d="M4990 4290 l0 -310 70 0 70 0 0 125 0 125 100 0 100 0 0 60 0 60
-100 0 -100 0 0 65 0 65 105 0 105 0 0 60 0 60 -175 0 -175 0 0 -310z"/>
<path d="M5410 4540 l0 -59 73 -3 72 -3 3 -247 2 -248 70 0 70 0 0 250 0 250
75 0 75 0 0 60 0 60 -220 0 -220 0 0 -60z"/>
<path d="M5880 4593 c0 -4 39 -144 86 -310 l87 -303 78 0 78 0 10 38 c6 20 28
98 50 172 l38 135 21 -70 c11 -38 34 -115 49 -170 l29 -100 79 0 79 0 88 305
c48 168 88 306 88 308 0 1 -35 2 -78 2 l-78 0 -48 -197 c-27 -109 -52 -204
-56 -211 -5 -11 -58 168 -107 368 -9 34 -11 35 -64 38 l-54 3 -55 -210 c-30
-115 -57 -207 -60 -205 -3 3 -28 96 -56 207 l-50 202 -77 3 c-42 2 -77 -1 -77
-5z"/>
<path d="M6991 4583 c-10 -21 -241 -593 -241 -599 0 -2 33 -4 74 -4 l74 0 22
60 23 61 120 -3 120 -3 20 -57 21 -58 73 0 c40 0 73 3 73 8 0 4 -55 143 -122
310 l-122 302 -63 0 c-49 0 -64 -4 -72 -17z m113 -285 l26 -68 -69 0 -70 0 25
63 c14 34 30 73 35 87 13 29 7 37 53 -82z"/>
<path d="M7440 4291 l0 -311 70 0 70 0 0 121 0 122 93 -121 92 -121 88 0 c68
-1 86 2 81 12 -5 6 -51 63 -103 126 -62 74 -91 116 -82 119 30 10 81 66 97
108 22 58 14 134 -20 179 -44 57 -84 69 -243 73 l-143 4 0 -311z m212 189 c41
-12 58 -34 58 -75 0 -41 -17 -63 -58 -75 -72 -20 -72 -20 -72 75 0 95 0 95 72
75z"/>
<path d="M8010 4290 l0 -310 180 0 180 0 0 60 0 59 -107 3 -108 3 -3 63 -3 62
106 0 105 0 0 60 0 60 -105 0 -106 0 3 63 3 62 108 3 107 3 0 59 0 60 -180 0
-180 0 0 -310z"/>
</g>
</svg>
